<!-- Generated by IcoMoon.io -->
<svg version="1.1" xmlns="http://www.w3.org/2000/svg" width="1024" height="1024" viewBox="0 0 1024 1024">
<title></title>
<g id="icomoon-ignore">
</g>
<path fill="#000" d="M306.005 881.28c-38.997-30.72-80.64-60.16-109.056-101.547-59.819-73.045-105.899-157.611-137.387-246.485-19.029-57.813-25.6-119.808-50.091-175.36-25.685-40.277 4.395-84.395 48.555-97.237 19.627-3.755 54.272-22.315 12.501-9.045-37.461 27.477-41.088-24.96-2.688-28.245 26.24-3.499 35.84-24.96 26.88-44.245-28.117-18.347 68.267-38.528 19.755-65.877-50.432-54.528 70.699-65.024 40.832-3.157-7.125 47.573 84.651-8.704 63.36 46.208 21.632 26.411 81.067 6.016 79.573 43.051 31.573 2.133 42.368 28.672 71.979 30.72 30.72 13.867 86.315 24.747 96.725 59.349-30.421 24.107-100.907-49.749-104.277 16.939 9.173 98.56 6.827 200.064 42.88 293.888 17.067 56.832 58.411 101.547 95.744 145.835 35.712 43.349 84.096 73.813 133.419 99.541 43.264 20.395 89.899 33.92 137.088 42.411 19.115-14.635 52.907-68.992 82.688-46.080 1.408 25.771-59.221 53.888-2.859 51.029 33.109-9.984 56.064 25.6 83.328-6.485 25.088 29.739 104.363-19.029 86.485 41.813-24.149 15.531-59.392 6.144-83.584 27.563-39.893-19.925-71.68 17.835-115.84 13.056-49.067 8.789-98.944 12.373-148.651 12.416-81.579-6.443-164.907-9.173-242.517-37.547-43.733-12.715-86.357-37.632-124.843-62.507zM374.912 911.147c42.667 18.432 84.437 37.888 131.2 43.776 74.24 10.283 150.912 26.197 225.408 11.691-33.707-15.232-68.608 5.973-102.187-10.88-40.277 8.661-83.499-2.219-124.459-7.552-46.592-20.736-96.853-34.987-140.459-61.952-54.485-19.883 28.16 25.515 42.923 29.227 34.048 19.328-37.461-9.941-47.573-17.963-28.501-16-32.171-12.672-2.816 3.584 5.931 3.456 11.776 7.083 17.963 10.069zM293.675 853.717c41.387 15.317-0.171-29.099-19.157-26.539-8.405-14.549-32.085-23.765-15.36-31.573-30.080 10.411-31.488-39.68-45.653-32.555-31.787-10.027-12.373-45.611-50.219-67.413-3.456-23.040-37.632-43.008-48.555-77.739-4.821-17.749-38.613-68.821-17.835-21.333 17.664 45.739 48.768 84.907 74.667 124.032 20.053 37.248 43.819 76.203 80.427 99.413 12.373 11.861 24.235 29.995 41.685 33.707zM174.507 722.859c1.408-6.229 7.552 13.525 0 0zM343.211 872.064c9.173-4.096-13.184-5.12 0 0zM365.653 880.256c-2.304-11.307-10.24 6.315 0 0zM393.813 891.989c13.355-12.757-20.651-8.021 0 0zM441.941 918.869c8.149-12.032-26.027-4.565 0 0zM349.44 854.315c20.779-13.44-26.88-0.171 0 0zM370.517 864.811c-0.597-7.083-7.509 3.2 0 0zM475.904 930.603c16.981 10.667 98.987 23.467 47.616 4.395-8.576 1.792-95.189-24.491-47.616-4.395zM308.608 800.299c-1.664-7.125-26.283-7.893 0 0zM357.675 828.885c12.8-8.917-26.496-6.827 0 0zM398.933 854.187c18.347-6.912-29.739-6.955 0 0zM288.64 778.539c19.883 15.275 80.213 1.963 30.464-9.088-22.613-12.075-73.685-20.309-38.912 7.253zM426.88 862.933c8.277-14.080-34.731-8.064 0 0zM384.896 829.525c48.64 13.781-40.875-30.72-11.989-5.035l6.4 2.901zM469.12 878.208c46.037 0.427-41.6-6.315 0 0zM270.933 751.915c-1.792-8.576-11.349 0.725 0 0zM546.987 921.899c1.237-15.488-15.019 11.52 0 0zM349.483 800.043c-2.773-8.149-14.379-0.341 0 0zM275.285 746.539c26.453-1.579-36.181-11.648 0 0zM187.392 689.707c-3.285-12.672-28.757-22.784 0 0zM418.133 836.267c-4.864-5.547-2.304 1.195 0 0zM561.749 924.373c-0.427-8.405-7.808 3.2 0 0zM405.419 823.125c2.56-10.88-22.571-3.285 0 0zM298.453 755.2c19.627-2.091-31.531-13.269 0 0zM479.445 867.712c30.635-12.16-29.867-5.973 0 0zM385.28 803.84c35.328 4.523-42.027-24.021-7.723-2.56zM508.032 879.275c32.981-19.712 22.101 46.165 55.936 5.547 33.365-24.32-28.8 30.165 12.331 4.395 29.739-19.925 73.685 9.387 101.419 18.987 19.968-0.981 39.381 17.28 59.861 6.187 39.381-10.667-77.056-15.787-46.507-34.56-36.053 10.453-62.72-12.544-80.427-35.627-40.448-9.344-87.211-29.995-107.392-65.792-8.192-13.44 11.904 1.877-7.083-20.053-24.363-21.675-36.523-46.293-52.907-72.619-19.499-10.411-21.76-41.088-23.765-1.024 0.171-25.301-23.595-42.325-29.397-35.243-0.085-24.363 25.429-12.16 7.552-30.165-3.84-25.259-16.512-51.584-20.309-80.085-5.888-13.739-0.853-43.136-20.181-12.032-7.040 32.853-2.347-40.405 8.619-16.213 14.379-24.704-5.12-21.76-5.973-18.347 9.387-20.821 5.973-50.347-2.432-39.083 4.992-22.059 7.893-81.152-7.467-70.656 9.301-23.040 17.664-105.515-22.784-74.069-16.384 0.213-44.715 5.973-58.155 12.629 42.069 23.168-4.224 8.363-21.333 4.693-2.219 21.419-19.2 12.16-40.363 12.373 33.835 4.181-16.469 34.56-35.883 22.784-25.173 12.032 21.76 42.112 0.512 51.413 2.603 13.995-38.613-5.077-35.413 27.307-24.448-10.283-3.328 38.4 8.917 21.931 41.6 11.264 29.269 36.949 30.336 61.312-6.784 14.208-33.493-33.408-5.973-31.189-21.675-35.285-23.979-12.757-42.027 3.627-4.224 1.195 46.037 23.339 14.507 34.261 27.733 4.267 28.501 28.587 34.133 43.947 16.683 17.365 13.269-19.2 33.237 1.707-12.629-18.603-66.859-52.395-23.211-41.557-0.213-18.731-7.893-33.835 5.504-33.451 13.227-23.979-13.867 59.179 16 28.672 8.235-3.627 10.283-24.021 25.173 1.92 21.547 21.248 7.765 36.608-22.656 17.195 5.419 18.475 40.704 25.045 34.091 53.973 7.040 25.387 16.853 16.043 25.429 14.592 6.741 24.661 10.539 6.528 10.88-5.248 30.763 6.613 23.552 24.789 33.195 37.547 21.205 9.557-30.379-64.939 6.059-22.443 38.315 34.603 14.379 49.067-20.053 43.52 21.76-1.749 28.8 29.44 56.021 28.331 24.832 11.819 41.643 57.173-1.152 38.272-14.848-13.355-67.371-29.867-24.448-4.437 39.637 18.347 71.083 29.355 109.312 52.352 27.307 19.541 39.168 41.899 49.493 46.336-22.955 10.965-69.248-8.789-34.859-14.848-21.461-3.883-45.568-14.72-25.045 11.947 17.493 14.635 61.867 13.056 69.845 14.72-6.784 14.848-18.347 16.043 0.256 17.195-20.736 11.093 6.656 12.8 8.576 19.072zM465.621 759.467c-12.629-13.227-15.915-37.973-2.261-16.427 6.997 2.816 22.4 40.405 2.261 16.427zM603.776 847.232c7.893-0.469 0.256 5.973 0 0zM445.653 727.083c-0.469-19.968 4.565 15.403 0 0zM431.915 708.608c-15.872-30.677 20.053 8.704 0 0zM265.515 593.749c9.301-2.517 4.565 15.957 0 0zM397.952 665.515c5.717-21.504 6.741 18.091 0 0zM304.384 600.448c-6.613-11.861 13.781 11.136 0 0zM384.683 626.219c-15.019-33.707 10.667-18.432 3.328 5.547zM246.187 533.845c-6.741-11.093-17.835-43.52-14.251-53.419 3.243 16.128 34.304 69.419 15.232 22.101-21.077-39.68 25.173 12.885 29.952 22.784 2.176 9.813-13.013-2.688-2.731 20.395-18.773-26.325-11.093 14.507-28.203-11.861zM203.392 504.363c1.749-25.728 9.813 17.621 0 0zM222.635 510.976c9.173-19.413 15.573 27.051 0 0zM176.341 475.136c-15.957-15.787-27.477-30.421 0.725-9.813 10.88 0.427-24.149-33.195 2.603-10.667 28.16 5.12 13.909 46.165-3.328 20.48zM200.661 474.496c9.259-9.173 4.907 9.045 0 0zM215.595 479.317c-13.995-26.325 17.067 11.008 0 0zM185.856 450.859c-46.336-41.216 58.24 21.589 7.552 7.68zM318.592 528c-20.053-12.032-5.291-84.651 1.536-34.987 19.499-6.315-1.067 25.643 13.44 25.344-2.261 20.181-8.789 27.435-14.976 9.643zM367.659 557.013c2.005-21.888 4.181 14.933 0 0zM359.125 548.565c2.261-9.344 0.256 11.008 0 0zM194.987 437.333c-29.739-41.088 86.485 41.515 19.072 10.411-7.040-1.835-15.531-2.517-19.072-10.411zM289.536 487.467c-2.816-34.56 6.272 5.717 0 0zM361.301 533.504c5.547-19.712 0.427 13.013 0 0zM199.509 421.632c17.707-3.755 73.301 31.104 22.229 9.984-5.675-6.315-17.792-3.413-22.229-9.984zM351.403 497.365c1.877-35.371 10.581-21.12 0.085 5.035zM212.693 409.344c7.211-10.581-19.157-47.787 3.797-13.355 9.899 7.893 28.672 13.227 12.075 16.512 26.069 22.997-6.357 6.229-15.872-3.157zM343.893 486.315c4.992-40.277 4.395 23.595 0 0zM197.632 372.139c5.504-2.347 2.901 7.339 0 0zM231.851 392.533c8.789-18.517 16.213 20.608 0 0zM328.405 446.251c-0.085-7.125 1.835 10.325 0 0zM322.816 433.877c-13.397-33.109 12.459 17.493 0 0zM314.581 412.16c-2.261-13.653 7.68 17.195 0 0zM327.979 390.4c-9.216-16.213 11.605-71.424 13.909-37.163-9.685 26.667-2.773 41.6 3.968 5.803 12.501-28.16-2.688 55.595-17.877 31.36zM341.717 308.309c4.011-4.907 0.896 5.931 0 0zM318.763 761.131c-5.461-4.736 0.683 3.029 0 0zM366.123 785.067c26.283 6.784 26.155-4.096 2.347-7.296-12.8-11.947-53.163-24.533-17.024-1.493 2.389 6.059 9.984 5.931 14.677 8.789zM272.597 722.987c14.507 10.795 54.613 30.677 20.651 4.096 11.477-13.312-21.931-20.395-10.837-29.269-28.16-17.237-22.187-15.701-2.475-15.189-33.877-15.104 4.864-13.995 3.029-21.76-13.056-2.56-64.853-22.997-34.347 1.707-30.976-15.787-7.381 5.888-16.725 3.584-31.701-8.619 28.16 24.107-5.035 16 18.133 14.379 48.896 36.864 7.68 15.232-5.461 7.808 29.483 19.627 38.059 25.6zM322.091 751.445c60.203 19.371-29.483-23.723 0 0zM575.531 904.96c0.853-11.947-8.192 10.24 0 0zM601.643 915.925c13.867-13.44 0.555 21.461 22.997-3.285 0.256-17.707-0.683-28.16-25.813-6.656-6.912 3.84-9.984 20.181 2.816 9.941zM188.075 656.213c-4.267-16.768-29.867-16.64 0 0zM215.893 674.475c-10.325-17.152-36.864-15.531 0 0zM374.187 769.92c15.445 13.696 70.955 10.069 18.773 1.707-7.765-11.477-49.109-8.704-18.773-1.707zM591.701 904.277c23.808-19.968-23.040 8.875 0 0zM641.195 938.24c0.128-6.4-10.24 2.816 0 0zM641.237 929.28c26.325-27.904-25.515 1.664 0 0zM119.68 598.955c-22.443-32-13.952-46.421-35.627-72.533-4.096-20.053-37.12-65.408-17.067-17.323 18.347 28.117 23.808 71.637 52.693 89.856zM632.96 920.405c48.469-31.317-19.84-13.653 0 0zM669.952 934.912c24.32-20.821-15.36-4.352 0 0zM179.84 620.8c6.955-10.325-17.92-1.323 0 0zM662.229 924.971c23.509-15.147-5.376-12.8-4.267 1.365zM343.467 724.053c-0.853-10.24-12.416 0.853 0 0zM363.136 735.403c-6.229-12.672-9.6 2.005 0 0zM699.947 935.253c30.080-21.76-18.261-4.181-6.315 4.096zM688.427 929.707c24.491-20.565-25.899 9.088 0 0zM747.307 968.875c16.469-11.008-20.011-3.541 0 0zM194.944 613.376c22.059 4.949 88.149 54.357 49.152 3.413-19.968-5.888-7.979-54.741-28.373-46.080 13.653 22.827 11.264 32.555-17.451 18.176-36.096-17.621-20.267 8.704-13.227 15.957-9.6 2.219 12.715 8.363 9.899 8.533zM94.421 534.016c3.925-16.341-36.395-89.899-19.029-36.864 6.229 11.093 5.589 32.171 19.029 36.864zM278.912 647.765c-11.349-9.515-0.555-1.365 0 0zM306.901 654.251c0-17.28-30.933-6.997 0 0zM549.333 807.125c-4.608-11.861-18.261-0.256 0 0zM560.981 815.616c-1.707-6.613-6.699 1.28 0 0zM657.109 876.16c9.216-6.827-11.52-0.853 0 0zM144.64 546.816c26.453-10.24-28.331-7.296 0 0zM528 788.352c-0.299-17.109-16.853 4.267 0 0zM134.187 522.496c16.981-5.76-15.701-3.797 0 0zM183.467 546.389c-0.299-5.675-5.205 2.133 0 0zM784.64 915.029c21.888-4.437 71.637 11.093 79.659-5.803-26.496-0.64-91.733-18.688-94.805 4.309l5.803 0.939zM199.168 550.315c0.384-17.365-13.525-0.64 0 0zM69.547 460.373c-5.888-33.067-22.4-5.035 0 0zM100.437 468.139c0.384-10.624-28.288-9.557 0 0zM118.101 476.8c-5.12-4.139-4.011 5.205 0 0zM229.248 548.053c5.205-4.779-12.373-3.541 0 0zM106.368 457.259c-2.987-24.96-35.84-3.755 0 0zM42.965 416.128c-0.853-11.52-6.144 4.352 0 0zM52.395 409.003c-1.536-13.653-8.107 1.707 0 0zM104.448 440.107c22.059-8.661-40.107-17.92-4.48-1.664zM801.365 870.571c14.080-12.928-17.92-4.011 0 0zM885.589 914.219c5.632-16.725-14.251 2.176 0 0zM109.781 412.843c2.347-16.171-17.451 3.2 0 0zM35.712 363.221c-3.968-22.827-3.413-62.891 34.645-49.323-50.816 10.069 35.157 63.147 24.32 21.248 21.333 1.024 41.813-12.629 30.549 8.107 42.112-4.651 71.296-41.131 111.957-36.053 31.659-4.181 66.304-7.339 100.437-20.096 28.075-2.048 55.083-32.256 39.68-50.133-38.229-3.243-78.293 1.536-120.619 9.941-46.848 9.728-89.429 28.245-136.747 36.224-46.080 6.187 9.259 17.067-3.925 19.456-24.064 8.363 28.672 13.995-3.115 22.784-19.627-3.755-40.107-10.496-31.701-31.147-44.16 5.675-82.987 24.021-48.085 68.949zM142.123 309.035c10.368-38.144 55.467 31.36 16.981 5.035-4.608-3.413-12.16-6.229-16.981-5.035zM144.128 290.517c14.933-11.093 7.936 6.229 0 0zM163.115 290.859c1.365-17.536 43.435 9.301 6.955 6.315zM189.056 280.405c9.472-11.093 2.731 9.856 0 0zM195.712 275.968c15.787-18.944 89.387-12.075 35.499-1.835-14.421-10.88-25.515 6.4-35.499 1.835zM291.755 261.163c-2.389-51.797 47.701 18.432 0 0zM319.019 260.992c9.941-26.112 38.656-10.453 4.608-5.248 0.725 2.773-1.024 13.483-4.608 5.248zM99.072 399.445c29.739-18.219-31.616-15.787 0 0zM121.045 405.589c10.453-11.093-22.656-4.523 0 0zM56.192 359.509c17.024-13.013-20.096-4.949 0 0zM935.253 909.483c0.512-15.147-12.971 6.827 0 0zM845.952 848.512c2.56-17.451-11.52 1.536 0 0zM959.872 915.371c23.765 0 72.021-7.381 20.267-7.381-8.107 1.28-47.317 1.024-20.267 7.381zM140.373 394.837c19.243-1.28 30.123-21.205-3.712-20.053-52.48-5.419 46.251 17.92-6.741 11.264-7.125 4.693 10.069 10.112 10.453 8.789zM157.355 403.456c-2.048-12.373-5.973 6.571 0 0zM177.408 349.824c8.405-10.368-11.52-2.773 0 0zM113.408 242.816c34.389-11.691 81.365-24.789 97.579 5.76-16.512-19.883-6.656-39.424 8.96-10.368 22.016 29.397 33.067-13.355 18.688-23.253 16.341 20.309 34.944 29.909 10.965 1.28 26.027-31.317-52.181 4.139-69.973 3.755-8.533 3.84-88.363 20.352-66.219 22.827zM133.547 204.288c19.627-14.805 67.755 8.789 36.864-14.72-2.987-2.645-67.669 17.835-36.864 14.72zM204.971 207.232c22.955 0.555-9.856-30.805 17.451-16.597-4.48-14.677-31.829-17.408-45.184-23.253-7.552 13.397 15.36 40.021 27.733 39.851zM146.091 142.379c7.936-10.752-13.909 5.461 0 0zM175.275 149.376c36.949-4.907-9.387-15.915-7.424-0.427zM120.789 106.709c-26.027-33.963 48.896 5.717 22.485-29.867-22.272-17.707-43.648 19.968-22.485 29.867zM454.656 286.549c11.947-21.163-49.28-28.501-8.021-7.467 3.797 1.28 2.944 8.96 8.021 7.467z"></path>
</svg>
